HIERARCHY
ROOT Hips
{
  OFFSET -35.2597 29.1586 114.425
  CHANNELS 6 Xposition Yposition Zposition Zrotation Xrotation Yrotation
  JOINT LeftUpLeg
  {
    OFFSET 8.64259 1.95398 -2.38835
    CHANNELS 3 Zrotation Xrotation Yrotation
    JOINT LeftLeg
    {
      OFFSET 43.7702 0 0
      CHANNELS 3 Zrotation Xrotation Yrotation
      JOINT LeftFoot
      {
        OFFSET 40.6238 0 0
        CHANNELS 3 Zrotation Xrotation Yrotation
        JOINT LeftToeBase
        {
          OFFSET 12.7242 0 0
          CHANNELS 3 Zrotation Xrotation Yrotation
          End Site
          {
            OFFSET 0 0 0
          }
        }
      }
    }
  }
  JOINT RightUpLeg
  {
    OFFSET -8.2249 1.95398 -2.59336
    CHANNELS 3 Zrotation Xrotation Yrotation
    JOINT RightLeg
    {
      OFFSET 43.5653 0 0
      CHANNELS 3 Zrotation Xrotation Yrotation
      JOINT RightFoot
      {
        OFFSET 40.6238 0 0
        CHANNELS 3 Zrotation Xrotation Yrotation
        JOINT RightToeBase
        {
          OFFSET 12.7242 0 0
          CHANNELS 3 Zrotation Xrotation Yrotation
          End Site
          {
            OFFSET 0 0 0
          }
        }
      }
    }
  }
  JOINT Spine
  {
    OFFSET 0.165834 0.87714 6.61349
    CHANNELS 3 Zrotation Xrotation Yrotation
    JOINT Spine1
    {
      OFFSET 7.38963 1.71661e-005 0
      CHANNELS 3 Zrotation Xrotation Yrotation
      JOINT Spine2
      {
        OFFSET 11.9445 1.14441e-005 0
        CHANNELS 3 Zrotation Xrotation Yrotation
        JOINT Spine3
        {
          OFFSET 14.7254 4.19617e-005 0
          CHANNELS 3 Zrotation Xrotation Yrotation
          JOINT Spine4
          {
            OFFSET 10.9679 0 0
            CHANNELS 3 Zrotation Xrotation Yrotation
            JOINT RightShoulder
            {
              OFFSET 2.46616 -1.6653 3.69651
              CHANNELS 3 Zrotation Xrotation Yrotation
              JOINT RightArm
              {
                OFFSET 13.0012 0 0
                CHANNELS 3 Zrotation Xrotation Yrotation
                JOINT RightForeArm
                {
                  OFFSET 28.7848 1.62311e-005 0
                  CHANNELS 3 Zrotation Xrotation Yrotation
                  JOINT RightHand
                  {
                    OFFSET 26.5688 1.62095e-005 0
                    CHANNELS 3 Zrotation Xrotation Yrotation
                    End Site
                    {
                      OFFSET 0 0 0
                    }
                  }
                }
              }
            }
            JOINT LeftShoulder
            {
              OFFSET 2.38034 -1.29275 -3.7523
              CHANNELS 3 Zrotation Xrotation Yrotation
              JOINT LeftArm
              {
                OFFSET 16.3182 6.07031e-005 0
                CHANNELS 3 Zrotation Xrotation Yrotation
                JOINT LeftForeArm
                {
                  OFFSET 27.0901 0 0
                  CHANNELS 3 Zrotation Xrotation Yrotation
                  JOINT LeftHand
                  {
                    OFFSET 24.5451 1.51738e-005 0
                    CHANNELS 3 Zrotation Xrotation Yrotation
                    End Site
                    {
                      OFFSET 0 0 0
                    }
                  }
                }
              }
            }
            JOINT Neck
            {
              OFFSET 5.0226 -0.0266342 0
              CHANNELS 3 Zrotation Xrotation Yrotation
              JOINT Head
              {
                OFFSET 6.69364 2.86102e-005 0
                CHANNELS 3 Zrotation Xrotation Yrotation
                End Site
                {
                  OFFSET 0 0 0
                }
              }
            }
          }
        }
      }
    }
  }
}
MOTION
Frames:	15
Frame Time:	0.0416667
-0.247025 96.6173 140.545 -149.464 -83.4345 -151.556 -177.996 17.7065 84.4378 -6.92261 0.792337 -1.88905 67.2209 4.44765 -2.86124 17.7662 -10.7458 7.69424 173.611 -10.6946 90.7202 -20.8416 -17.3091 -1.11071 78.0348 -11.295 -3.70694 25.8387 -0.133686 4.28521 1.01892 8.17485 -89.8956 10.5253 2.07748 0.0219768 -1.14397 2.07643 -0.0695248 -23.6915 1.97479 0.645572 -3.67887 1.97479 0.645574 86.707 -32.5566 -112.053 35.9319 8.47969 -16.7334 -5.54591 -45.4276 -5.60144 -24.1499 3.41987 -21.5337 -86.4776 -62.6512 85.765 -17.7143 -16.2403 -7.04881 2.6734 17.5316 -3.7276 3.79729 -0.708082 -15.7799 -2.5795 -2.1323 2.99637 1.15644 -2.49214 -1.68946 
-0.0244076 96.023 147.252 -141.247 -82.9773 -143.461 -177.793 16.6658 84.2361 -7.88098 1.29462 -2.17371 59.1473 -0.0567156 -3.29164 14.1479 -11.219 4.99665 173.04 -15.2496 89.7791 -19.398 -18.0825 -1.79988 76.4446 -10.9439 -4.8598 29.9427 -1.8803 4.98024 1.07876 8.04957 -89.8613 10.7756 2.21214 0.0710161 -0.893423 2.21313 -0.0264692 -23.4425 2.08849 0.732867 -3.42981 2.08849 0.732862 86.4616 -33.0046 -112.314 37.2011 7.9978 -15.7268 -5.57283 -45.7814 -5.61878 -23.783 3.42333 -21.8133 -86.2775 -63.3552 86.1122 -17.7241 -16.2266 -5.72513 2.71383 18.8589 -3.77596 3.52048 -0.595261 -14.1525 -2.79119 -1.78316 3.33037 0.706426 -2.17768 -1.92568 
0.182075 95.9989 154.82 -135.27 -81.8217 -139.324 -176.734 17.4494 82.2871 -17.3352 3.33183 -3.21713 59.8819 -1.22066 -2.3502 9.07316 -14.0605 4.35572 171.123 -17.516 86.1928 -22.3964 -19.7558 -3.02588 71.1675 -7.46892 -4.71471 38.4101 -5.22624 6.55535 1.10906 7.94186 -89.5645 10.9847 2.40967 0.637189 -0.684066 2.43538 0.530457 -23.2324 2.10674 1.3322 -3.2198 2.10673 1.33219 86.0682 -33.8856 -112.654 39.6386 7.42203 -12.499 -5.61396 -46.3051 -5.6456 -22.6636 3.17343 -21.4357 -86.2271 -62.8601 86.1186 -17.6032 -16.2528 -3.41427 2.67862 17.5594 -3.74724 2.95788 -0.439106 -11.7861 -2.93038 -1.59806 2.02568 -0.24924 -1.82304 -1.25777 
0.359744 96.4549 161.842 -138.616 -80.1929 -144.78 -175.652 12.9876 80.1919 -21.1833 4.48758 -4.53037 64.2422 1.90899 -1.89803 7.24721 -14.6125 3.51588 169.302 -15.8217 81.9959 -32.7455 -22.527 -4.71544 64.0208 -2.49431 -2.77982 39.8562 -6.18878 9.13106 0.998122 7.98039 -89.264 10.9004 2.32765 1.24536 -0.768925 2.38019 1.14168 -23.3108 1.84579 1.88739 -3.29816 1.84579 1.88739 85.8062 -34.4815 -112.87 41.7356 7.27362 -8.73703 -5.65057 -46.7662 -5.66935 -17.9674 2.50779 -21.5543 -86.3447 -62.1283 85.8753 -17.2803 -16.3493 -1.75432 2.63606 16.1574 -3.6917 0.897525 -0.254616 -10.1052 -3.59811 -1.17749 0.637137 -0.69866 -1.23666 -0.0436451 
0.466802 96.817 167.553 -133.524 -77.9821 -140.593 -175.105 8.2661 79.5382 -22.2862 2.5623 -5.22689 68.1349 4.58177 -1.92442 10.4472 -12.174 3.07398 170.149 -7.95402 79.4334 -49.0013 -25.5904 -6.33624 54.9293 3.5309 1.38168 26.7327 -1.06894 6.4153 0.942801 8.05226 -89.1375 10.7528 2.2752 1.5051 -0.916958 2.33923 1.40349 -23.4552 1.71776 2.11927 -3.44259 1.71777 2.11929 85.3026 -35.0571 -113.529 43.1157 7.40196 -5.64424 -5.71984 -47.6254 -5.71616 -20.9904 2.54699 -19.4019 -86.4105 -61.357 85.692 -17.8368 -16.1615 -2.36363 2.64236 16.3173 -3.704 1.87661 -0.252189 -8.78495 -3.54541 -0.372197 -0.33366 -0.875133 -0.331366 0.60054 
0.408313 97.1296 172.031 -128.206 -76.2133 -134.996 -175.472 4.72738 79.2533 -21.8869 1.22604 -4.99073 70.9256 6.20461 -1.27267 10.6723 -12.4989 3.69573 173.925 1.00522 80.6138 -61.377 -25.9143 -7.48209 56.497 2.4335 0.718514 24.9178 -0.16686 5.47885 0.762145 8.09948 -89.2254 10.6624 1.87449 1.36916 -1.00782 1.93293 1.28531 -23.5438 1.37641 1.86917 -3.53111 1.37642 1.86916 84.3228 -34.5693 -115.514 43.5627 7.81254 -3.19799 -5.44053 -44.0049 -5.53506 -22.2218 2.73604 -19.5014 -87.0134 -61.4647 84.9046 -18.0181 -16.1095 -4.58442 2.68867 17.8674 -3.76002 2.9381 -0.247495 -7.7538 -3.47436 0.974336 0.423888 -0.575014 0.920333 0.256797 
0.0429704 97.6008 176.346 -131.284 -76.1621 -135.173 -175.541 1.27705 81.2131 -21.8823 2.42914 -3.46634 73.1539 7.67328 -0.38876 12.1938 -12.0848 4.45853 176.587 6.59015 85.0619 -61.2282 -19.3917 -6.14972 64.6573 -3.14524 -1.01718 26.9251 -0.752146 4.9604 0.416172 8.2241 -89.5617 10.4222 1.02991 0.780363 -1.24854 1.06326 0.734264 -23.7838 0.74778 1.0538 -3.77115 0.747778 1.0538 86.128 -35.6994 -111.769 42.4443 8.14746 -3.67808 -5.6109 -46.2657 -5.64371 -22.2878 2.71236 -19.3378 -86.8657 -60.3067 84.947 -18.6818 -15.849 -9.59159 2.8238 22.3543 -3.89246 3.18927 -0.228158 -7.54052 -3.6108 1.79833 -1.63901 0.0374983 1.97515 1.7293 
-0.588662 97.954 180.265 -134.238 -77.2102 -135.539 -175.026 -1.3992 83.6801 -21.318 3.95685 -2.44606 74.8628 8.98661 -0.276015 14.1513 -11.5271 5.42811 178.77 11.3785 89.8513 -52.2768 -10.8915 -4.87597 67.8681 -5.45425 -2.27254 26.7279 -0.642472 4.85938 0.0692066 8.2847 -89.8825 10.3039 0.191656 0.217065 -1.36704 0.201017 0.208407 -23.9021 0.117558 0.264633 -3.88949 0.117554 0.264621 86.35 -36.4778 -111.053 41.3186 8.72981 -3.09158 -5.45891 -44.2569 -5.54636 -22.703 2.70492 -19.0255 -86.81 -58.223 84.7381 -20.9942 -14.7287 -15.619 2.87977 24.0434 -3.94767 5.66106 -0.262653 -7.04569 -3.85226 2.44982 -3.06544 -0.397312 2.76787 2.48896 
-1.31786 97.9322 184.353 -140.411 -79.4742 -140.124 -174.775 -3.43999 85.4034 -21.0803 5.77648 -1.42817 76.8501 10.3747 -0.259701 14.3915 -11.4707 5.56628 -179.969 14.4059 92.6018 -37.6432 -7.33745 -3.71058 67.3446 -5.27269 -1.12484 24.4426 0.495499 4.02913 -0.337137 8.30044 -90.0676 10.2731 -0.702538 -0.073814 -1.39767 -0.7051 -0.0428243 -23.9341 -0.647875 -0.281553 -3.92144 -0.647876 -0.281552 86.5156 -36.9631 -110.565 41.2604 8.88658 -2.48245 -5.33421 -42.5083 -5.47028 -23.1206 2.78781 -19.1684 -86.8621 -55.8747 84.334 -22.3315 -13.8203 -21.8689 2.90974 25.038 -3.96797 4.52785 -0.404489 -9.578 -3.51884 2.76194 -4.65071 -1.13776 3.24286 3.38293 
-1.83412 97.5801 188.827 -151.211 -81.6904 -150.717 -174.508 -5.88048 86.1546 -20.5684 9.31486 -1.06201 78.6499 11.9499 0.31046 16.7261 -11.4453 7.71505 179.706 15.3201 93.2128 -21.0261 -10.1968 -2.06626 63.0633 -2.88682 -0.0238422 23.5273 0.150011 6.07678 -0.689407 8.32551 -90.1113 10.2228 -1.42437 -0.0995902 -1.44738 -1.42737 -0.0367988 -23.9881 -1.32859 -0.52315 -3.97549 -1.32858 -0.523142 86.7448 -37.8716 -109.809 40.6323 9.28999 -1.7214 -5.34287 -42.6339 -5.47542 -22.0061 2.87824 -20.3895 -87.0473 -54.1576 83.8149 -23.5613 -12.7708 -28.0477 2.93024 25.5962 -3.99114 6.76456 -0.676193 -11.6899 -2.49038 2.52994 -6.34815 -1.44626 3.23909 4.59918 
-2.33492 96.8228 194.06 -159.866 -82.8015 -159.226 -173.801 -9.74028 87.2026 -18.9573 11.2133 -0.997149 81.1291 14.0188 0.388159 16.942 -11.392 7.84587 178.592 14.7271 94.3472 -7.04595 -11.9945 -0.0740338 61.4155 -1.76659 -0.559099 27.795 -0.883438 4.3122 -0.880088 8.33217 -90.1736 10.2089 -1.83273 -0.188466 -1.4608 -1.83925 -0.107603 -24.005 -1.69134 -0.730717 -3.99238 -1.69134 -0.730718 86.4782 -38.3871 -110.077 39.9988 9.76812 -0.545143 -5.35754 -42.8512 -5.48026 -20.4526 2.5887 -19.9803 -87.1776 -53.6407 83.5479 -24.77 -11.6461 -32.6914 2.93376 24.8903 -3.97676 8.15532 -0.946027 -13.6488 -2.13409 2.33885 -6.46996 -1.6165 3.07757 4.40661 
-2.89298 95.5728 199.891 -167.479 -83.7235 -166.782 -172.775 -13.8554 88.5334 -17.3976 12.1076 -1.057 83.8823 16.3095 -0.151463 18.3758 -10.4977 7.91887 178.457 16.7254 95.5207 -6.32815 -6.42897 1.11389 62.7102 -1.64449 0.427294 28.9165 -1.19683 3.9202 -0.997154 8.22859 -90.2161 10.4153 -2.08538 -0.246325 -1.25399 -2.09419 -0.154274 -23.8007 -1.9149 -0.861897 -3.78806 -1.9149 -0.861898 86.3046 -39.2804 -110.039 39.4964 10.221 0.829516 -5.31718 -42.5468 -5.45412 -19.5311 2.34483 -19.2563 -87.2775 -53.5535 83.3897 -26.1325 -10.4732 -34.956 2.86727 23.991 -3.92977 8.2912 -0.986807 -13.9541 -2.23041 2.40572 -6.69294 -2.56371 3.12932 4.54434 
-3.25444 94.8248 206.544 178.343 -83.6692 179.206 -171.566 -18.7404 90.229 -16.0572 13.4112 -0.747819 82.2434 15.3411 -1.45566 24.3382 -8.30138 10.7249 178.421 17.4241 96.2204 -11.7185 -7.58747 1.1443 59.9209 0.804326 -1.11199 23.8554 0.407105 4.93546 -1.16205 8.16665 -90.3177 10.5378 -2.46047 -0.411673 -1.13083 -2.4762 -0.30293 -23.6814 -2.22295 -1.13245 -3.66875 -2.22295 -1.13245 85.9384 -39.9262 -110.42 38.2936 10.8797 2.14957 -5.35307 -42.8082 -5.48097 -18.2841 2.10431 -18.7563 -87.5227 -54.5534 83.1956 -27.0331 -9.87745 -34.4297 2.99743 26.9387 -4.03976 7.7226 -0.862026 -13.107 -1.95165 2.45329 -5.85643 -2.96464 3.06646 4.99926 
-3.39728 94.6728 213.805 169.999 -83.6444 171.73 -171.203 -20.4203 91.4871 -19.1181 14.0503 0.455759 76.1178 12.4769 1.77744 33.8731 -2.334 10.8907 177.102 19.478 96.9972 -22.8399 -9.49372 2.09389 60.2645 2.06999 -1.10748 16.2839 3.60936 4.38068 -1.21423 8.03111 -90.5182 10.8039 -2.65693 -0.783518 -0.864554 -2.68882 -0.665754 -23.4151 -2.29858 -1.54613 -3.40245 -2.29858 -1.54614 86.0451 -39.8807 -110.256 37.6712 11.228 2.94554 -5.36023 -42.8798 -5.48594 -17.8923 1.9838 -18.2749 -87.4018 -54.7662 83.4017 -28.6149 -9.24522 -30.5488 3.10569 30.3118 -4.16912 5.98232 -0.577211 -11.0261 -1.73643 2.51698 -4.09175 -3.87612 2.88788 4.75454 
-3.64981 95.2661 220.445 178.138 -82.7605 -178.376 -169.819 -16.1167 94.3326 -32.0783 17.6885 0.929149 65.4841 4.76167 2.91986 38.5327 0.650532 10.4916 176.979 16.1288 98.935 -26.7744 -10.675 2.72131 64.1125 -1.35496 -2.16471 15.1731 3.74642 5.10393 -0.96458 8.04266 -90.8081 10.7732 -2.29347 -1.39471 -0.896389 -2.35263 -1.2924 -23.4361 -1.76836 -2.01952 -3.42348 -1.76835 -2.01951 86.3811 -38.9912 -110.015 37.9156 11.0586 2.42649 -5.30507 -42.0824 -5.45304 -18.4998 1.92856 -17.4801 -87.4049 -55.036 83.4395 -30.0148 -9.05182 -25.2189 3.21514 32.9853 -4.28261 3.33793 -0.23721 -7.5168 -2.74085 2.35277 -2.95966 -3.64335 2.56097 5.18132 
